<svg
   class="fill-red-50"
   width="884.32788"
   height="456.60959"
   viewBox="0 0 68.183802 35.205695"
   version="1.1"
   id="svg3"
   sodipodi:docname="nolan.svg"
   inkscape:export-filename="../../favicons/favicon.svg"
   inkscape:export-xdpi="96"
   inkscape:export-ydpi="96"
   xml:space="preserve"
   xmlns:inkscape="http://www.inkscape.org/namespaces/inkscape"
   xmlns:sodipodi="http://sodipodi.sourceforge.net/DTD/sodipodi-0.dtd"
   xmlns="http://www.w3.org/2000/svg"
   xmlns:svg="http://www.w3.org/2000/svg"><defs
     id="defs3" /><sodipodi:namedview
     id="namedview3"
     pagecolor="#ffffff"
     bordercolor="#000000"
     borderopacity="0.25"
     inkscape:showpageshadow="2"
     inkscape:pageopacity="0.0"
     inkscape:pagecheckerboard="0"
     inkscape:deskcolor="#d1d1d1" /><g
     fill-rule="evenodd"
     clip-rule="evenodd"
     id="g3"
     transform="translate(-75.388214,-78.775154)"><path
       style="fill:#f8f8f8;fill-opacity:1;stroke:none"
       d="m 125.35881,78.775149 v 0.0771 c 1.59642,1.05637 3.25144,2.036564 4.62614,3.392802 1.51826,1.497864 2.98978,3.083409 3.8086,5.088462 0.18538,0.453946 0.69756,1.343701 0.53275,1.842128 -0.13906,0.420553 -1.0405,0.559628 -1.41146,0.68946 -1.33564,0.467457 -2.58901,1.091975 -3.85512,1.717134 -3.74521,1.849252 -7.51386,4.735458 -9.50626,8.473175 -0.80742,1.51472 -1.5379,3.71144 -0.82546,5.39716 h 0.1542 l 1.08782,-3.70091 1.91918,-3.006992 h 0.0771 c 0.048,0.463866 -0.1155,0.923874 -0.14731,1.387842 -0.0605,0.88227 -0.0496,1.82401 0.0702,2.69858 0.0324,0.23668 0.0199,1.18672 0.32542,1.23971 0.32291,0.056 0.8934,-1.00959 1.07164,-1.23971 0.95332,-1.23076 2.08428,-2.40128 3.22795,-3.456454 0.24942,-0.230117 1.22518,-1.391203 1.57161,-1.056949 0.2428,0.234272 -0.05,0.551811 -0.20477,0.735391 -0.56997,0.675935 -0.98007,1.383682 -1.23304,2.235972 -0.82803,2.78985 0.9287,6.88602 4.18507,7.09342 -0.42747,-0.4911 -1.18307,-0.69459 -1.69626,-1.11525 -1.25934,-1.03229 -2.14699,-2.77624 -1.99157,-4.43613 0.0906,-0.96781 0.36978,-1.8797 0.90173,-2.69858 0.13071,-0.201216 0.44416,-0.768961 0.75252,-0.622889 0.95717,0.453429 -0.0896,1.577259 -0.27729,2.164939 -0.4398,1.3768 -0.22782,2.77645 0.71444,3.89944 2.38985,2.84821 7.23171,1.00347 7.06766,-2.74291 -0.0455,-1.04015 -0.56368,-2.23571 -1.3851,-2.889965 -0.38524,-0.306833 -1.02292,-0.468502 -1.33145,-0.841289 -0.26766,-0.323398 -0.26743,-0.88632 -0.36451,-1.280397 0.97153,-0.151946 1.7903,0.566602 2.62148,0.925229 -0.31183,-0.654806 -1.124,-0.985338 -1.77335,-1.216862 -0.30456,-0.108589 -0.73315,-0.139414 -0.93618,-0.419841 -0.16491,-0.227778 -0.1542,-0.564536 -0.21144,-0.830574 -0.0774,-0.359939 -0.28571,-0.954702 -0.16711,-1.310684 0.15649,-0.469702 0.75879,-0.781283 1.16052,-1.012265 1.09719,-0.630853 2.29076,-1.154532 3.46961,-1.609273 v -0.0771 c -1.51644,0.0042 -3.27519,0.771146 -4.62614,1.420559 -0.36797,0.176882 -1.20718,0.40842 -1.3606,0.823504 -0.12199,0.330039 0.20176,0.910245 0.30686,1.225545 0.34061,1.021828 0.65198,2.054018 0.96587,3.084096 l 0.96788,3.161197 c 0.05,0.16399 0.2232,1.03308 0.53686,0.83456 0.20366,-0.1289 -0.007,-0.65629 -0.0452,-0.83456 -0.15912,-0.73601 -0.49899,-1.55596 -0.44644,-2.313071 1.19245,0.583201 2.08727,1.651261 2.22283,3.006991 0.22433,2.24365 -1.93798,4.23493 -4.15039,3.90902 -2.46155,-0.36262 -4.44915,-4.166 -2.08176,-5.91368 l 1.27986,2.15886 0.95611,1.15654 c 0.169,-0.6919 -0.53335,-1.62977 -0.84004,-2.23597 -0.85726,-1.69447 -1.57745,-3.461214 -2.41706,-5.165857 -0.24968,-0.506912 -0.48215,-1.02411 -0.70784,-1.542048 -0.0851,-0.195227 -0.27691,-0.463857 -0.22441,-0.686721 0.12317,-0.522856 1.36786,-0.852466 1.79918,-1.067599 1.98515,-0.990152 4.21595,-1.651503 6.39949,-2.029886 0.59025,-0.102284 1.18046,-0.183311 1.77336,-0.269204 0.19611,-0.02841 0.55637,0.01382 0.68868,-0.167353 0.1804,-0.247011 -0.12905,-0.848023 -0.21328,-1.099303 -0.37267,-1.111815 -0.82916,-2.17337 -1.46726,-3.161198 -1.90211,-2.944597 -4.67518,-4.989627 -7.79781,-6.496531 -1.03814,-0.500977 -2.38081,-1.237408 -3.54671,-1.290811 m -22.2055,7.787342 c 1.05189,-0.137588 2.20948,-1.124559 3.1612,-1.600115 1.96585,-0.982293 4.27262,-1.874298 6.4766,-2.087713 2.98161,-0.288715 5.96575,0.256513 8.86678,0.930288 1.55042,0.36009 3.26793,0.992006 4.85745,1.061287 -0.38555,-0.491339 -1.07164,-0.753028 -1.61915,-1.033861 -1.29762,-0.665582 -2.6271,-1.231351 -4.00932,-1.692092 -3.13146,-1.043819 -7.2166,-2.167334 -10.48593,-1.190683 -1.66045,0.496032 -3.07613,1.561136 -4.40174,2.634748 -0.99673,0.80726 -2.29889,1.784028 -2.84589,2.978141 M 77.015592,81.473733 v 0.0771 c 1.562955,0.190441 3.136304,0.465575 4.703247,0.671611 2.4455,0.321558 5.061951,0.618316 7.324728,1.66532 1.185014,0.548315 1.857029,1.691147 2.852788,2.496543 1.372013,1.109722 3.275349,1.887085 5.01166,2.171658 2.04034,0.334401 4.010075,0.246621 6.013995,-0.268667 0.59395,-0.152732 1.66253,-0.327987 2.00466,-0.876682 -3.67931,0.475146 -7.124035,0.843081 -10.408833,-1.316812 -0.710143,-0.466949 -1.446423,-1.089476 -2.010255,-1.725938 -0.723784,-0.817015 -1.047829,-1.559145 -2.153275,-1.964803 -1.68236,-0.617365 -3.479838,-0.661286 -5.242963,-0.782026 -2.690544,-0.184253 -5.393641,-0.147306 -8.095752,-0.147306 m 3.469608,3.623813 v 0.0771 l 9.406493,5.054908 5.859782,1.96141 -3.161198,2.951906 -1.201214,0.930937 -1.111858,-0.81838 -3.084096,-2.524746 c 1.100862,-0.175095 2.504362,0.424044 3.469608,0.906669 0.480379,0.240187 0.99071,0.737126 1.542048,0.712481 -0.202062,-0.424072 -0.61304,-0.650118 -1.002331,-0.892447 -0.996731,-0.620447 -2.230525,-1.064101 -3.392506,-1.243572 -0.439934,-0.06795 -0.969516,-0.01282 -1.387843,-0.154149 -0.893628,-0.301896 -1.822163,-1.357329 -2.544379,-1.956713 -0.266873,-0.221486 -0.585562,-0.580456 -0.925229,-0.682138 -0.386072,-0.115574 -0.687246,0.344716 -0.87359,0.611346 -0.625615,0.895163 -0.514253,2.050146 -0.514253,3.084035 -0.607233,0.03284 -1.127832,0.442082 -1.61915,0.771085 -1.365406,0.914316 -2.451233,2.117036 -3.259897,3.546649 -3.049408,5.390975 -0.524915,13.014745 5.495866,15.034965 v 0.0771 c -0.648062,0.0511 -2.327258,-0.0495 -2.698584,0.53971 1.53205,0.28865 3.079209,0.28648 4.626144,0.39241 3.364279,0.2304 6.726784,0.21999 10.100414,0.30264 9.209523,0.22563 18.465143,0.27318 27.679773,0.077 3.8316,-0.0816 7.66153,-0.21459 11.48825,-0.30835 1.35834,-0.0333 2.73565,-0.075 4.08643,-0.21965 0.66943,-0.0717 1.37719,-0.0547 2.00466,-0.3212 -0.53863,-0.40089 -1.36568,-0.30476 -2.00466,-0.38551 0.48297,-0.56341 1.39461,-0.8794 2.00466,-1.32246 1.10061,-0.79935 2.01989,-1.82195 2.7093,-2.99528 2.34821,-3.99644 1.66206,-9.188876 -1.54586,-12.48755 -0.9016,-0.927097 -2.35709,-2.197432 -3.70781,-2.316107 0.64216,0.749113 1.78808,1.194127 2.53748,1.883475 1.29742,1.193458 2.22437,2.904709 2.68371,4.593126 1.84938,6.797866 -4.44565,13.222156 -11.23518,12.080086 -1.919,-0.32279 -4.00997,-1.46135 -5.30668,-2.90484 -0.4299,-0.47856 -0.84336,-1.00128 -1.19206,-1.54211 -0.21341,-0.33101 -0.32989,-0.70939 -0.67178,-0.92523 0.35757,1.66552 1.72911,3.25424 3.00669,4.30459 0.51282,0.42161 1.19193,0.7443 1.61945,1.24679 l -23.82464,-0.23131 -14.032648,0.23131 c 0.56032,-0.60694 1.431654,-0.94082 2.074864,-1.46495 1.699455,-1.38484 3.84463,-4.12247 3.553611,-6.4766 -0.364547,0.19907 -0.402615,0.63172 -0.535851,1.00233 -0.237286,0.66003 -0.522083,1.32686 -0.887748,1.92756 -1.050334,1.72545 -2.598347,3.07968 -4.436183,3.90818 -5.578204,2.51469 -12.264618,-1.1557 -13.34514,-7.14648 -0.162705,-0.9021 -0.272241,-1.93808 -0.112025,-2.85279 0.322356,-1.840396 1.031817,-3.678834 2.290703,-5.088758 0.461961,-0.517382 0.973917,-1.011564 1.528662,-1.428295 0.375463,-0.282057 0.865821,-0.486907 1.002331,-0.961879 h 0.0771 l 0.539717,0.848126 c -0.0064,-0.838093 0.123919,-3.119117 1.464945,-3.014429 0.641417,0.05007 1.591202,1.061401 2.081765,1.457332 1.696349,1.369113 3.405644,2.723007 5.088758,4.107961 0.697014,0.573539 1.384217,1.159124 2.081765,1.731176 0.239561,0.196459 0.660514,0.415173 0.758113,0.729913 0.07352,0.237095 -0.154031,0.459569 -0.30252,0.613423 -0.46116,0.47784 -1.10286,0.76568 -1.766334,0.77383 -0.875607,0.0107 -1.681003,-0.21141 -2.467277,-0.59773 -0.303181,-0.14895 -0.951648,-0.664463 -1.288728,-0.577967 -0.391077,0.100354 -0.894763,0.741777 -1.178548,1.022087 -0.343093,0.33888 -0.965938,0.70274 -0.848127,1.23334 l 1.696253,-1.28189 0.771024,-0.42186 0.692435,0.46106 0.386999,0.47166 c -0.861207,0.2481 -2.470522,0.81263 -3.084096,1.46495 0.835589,-0.0364 1.672278,-0.39893 2.467276,-0.63842 0.247037,-0.0744 0.729885,-0.31677 0.968896,-0.14897 0.48352,0.33947 0.06428,1.46427 -0.116188,1.86682 -0.61688,1.37605 -2.166568,2.14884 -3.628394,1.82238 -2.150366,-0.48022 -3.261967,-3.04952 -2.039585,-4.90534 0.664723,-1.009188 1.802226,-1.450663 2.964814,-1.543182 -0.299544,-0.897699 -1.999594,-0.02737 -2.467277,0.326852 -1.22209,0.9256 -1.721255,2.50814 -1.340845,3.99088 0.594118,2.31572 3.590121,3.41856 5.581477,2.11187 1.35245,-0.88745 1.696253,-2.21129 1.696253,-3.73102 0.813641,0.0349 1.583058,0.13882 2.390174,-0.0712 0.307104,-0.0799 0.842263,-0.4272 1.143388,-0.25755 0.350219,0.19732 0.62092,0.70723 0.869364,1.01578 0.67779,0.84176 1.334689,1.69642 1.995732,2.55128 0.35574,0.46003 0.70524,1.12202 1.31158,1.26963 0.66405,0.16167 1.47761,0.0411 2.158875,0.0411 1.46896,0 2.93087,-0.01 4.39483,-0.0741 4.32761,-0.18952 8.69821,-0.23435 13.03031,-0.23435 -0.37835,-0.50371 -1.29986,-0.2691 -1.85046,-0.3215 -1.88647,-0.17952 -3.80861,-0.14111 -5.70558,-0.14111 -2.72165,0 -5.44967,-0.23131 -8.17285,-0.23131 -0.77533,0 -1.53942,-0.0771 -2.313075,-0.0771 -0.33587,0 -0.78006,0.0756 -1.07248,-0.12363 -0.49594,-0.33787 -0.84862,-1.07455 -1.16373,-1.57262 -0.71662,-1.13273 -1.381895,-2.28248 -2.004422,-3.46961 l 5.165867,-1.773356 c 0.55733,1.49481 0.61681,2.974256 0.61681,4.549046 0.51404,-0.15024 0.57717,-1.31214 0.68429,-1.77336 0.37664,-1.621757 0.29696,-3.808446 -1.224,-4.831036 -0.36733,-0.246964 -0.860935,-0.56776 -1.310745,-0.489029 0.13601,0.291322 0.642765,0.891007 0.47201,1.216386 -0.16732,0.318848 -0.78039,0.457942 -1.08883,0.58993 -0.8538,0.365361 -1.70182,0.751259 -2.544378,1.141599 -0.296313,0.137277 -0.738953,0.447056 -1.076399,0.414604 C 94.837799,99.148364 94.579089,98.74306 94.363333,98.55877 93.69268,97.985919 92.5094,97.387321 92.12766,96.585699 c 0.486737,-0.207486 0.896301,-0.625441 1.31074,-0.951347 0.817524,-0.642885 1.640316,-1.279399 2.467277,-1.910364 0.692128,-0.528089 1.106798,-1.009362 2.004658,-0.993409 -0.75821,-0.78197 -2.128745,-1.203374 -3.084091,-1.720051 -3.072033,-1.661438 -6.308079,-2.787955 -9.560698,-4.048055 -1.010489,-0.391474 -2.011161,-0.809264 -3.006993,-1.236612 -0.560407,-0.240493 -1.157946,-0.589233 -1.773356,-0.628419 M 111.40327,102.9853 c 0,-1.53928 -0.0987,-3.095115 -0.24439,-4.626142 -0.0574,-0.602833 -0.34366,-1.505276 -0.1059,-2.081765 0.40741,-0.987865 1.67021,-1.791972 2.50916,-2.390174 2.31708,-1.652149 4.84253,-2.982358 7.40183,-4.220702 0.89027,-0.430765 2.26272,-0.740657 2.92989,-1.484875 -1.23778,0.101112 -2.528,0.751131 -3.70092,1.143684 -2.8889,0.966862 -5.7182,2.093793 -8.48126,3.376566 -0.92282,0.428426 -1.82027,0.90272 -2.69858,1.41574 -0.3026,0.176751 -0.84687,0.352166 -0.98996,0.702016 -0.13685,0.334603 0.28718,0.928673 0.42728,1.226438 0.50221,1.067434 0.9282,2.159211 1.40009,3.238301 0.37476,0.856963 0.68993,1.739743 1.0021,2.621473 0.13052,0.36866 0.20336,0.86773 0.55066,1.07944 m 10.94854,-1.00233 c -0.21742,-0.91326 -0.0941,-2.00853 0.0328,-2.92989 0.0488,-0.354594 0.0634,-0.760963 0.24856,-1.076399 0.386,-0.657455 1.2067,-1.211816 1.80043,-1.672337 0.32464,-0.251811 1.29872,-1.278138 1.74438,-1.081457 0.33356,0.147217 1.16605,1.468809 1.07396,1.824401 -0.11727,0.452826 -0.88866,0.877129 -1.2143,1.197289 -0.82932,0.81535 -1.64499,1.663443 -2.44913,2.504753 -0.40056,0.41907 -0.69952,0.98245 -1.23668,1.23364 m -37.317568,5.08876 c -0.465457,-0.39655 -1.078549,-0.58279 -1.542048,-1.00954 -1.418037,-1.3056 -2.048762,-3.22598 -1.437282,-5.08155 0.363719,-1.103726 1.180337,-2.006357 2.131204,-2.640757 0.188675,-0.12588 1.093814,-0.394539 0.867284,-0.719682 -0.215688,-0.309587 -0.688555,-0.08026 -0.944387,0.03463 -0.771911,0.346645 -1.39366,0.892099 -1.911258,1.552458 -1.568856,2.001551 -1.261929,4.959561 0.523474,6.706781 0.540865,0.5293 1.506358,1.27528 2.313013,1.15767 m 50.964698,-8.249963 0.0771,0.0771 -0.0771,-0.0771 m -14.95787,3.778023 c -0.73326,1.25632 -1.27575,3.10561 -0.84813,4.54904 -1.37898,0.32831 -2.98135,0.0182 -4.39483,0.0801 -3.19983,0.14012 -6.43528,0.21277 -9.6378,0.22821 -1.91294,0.009 -4.05705,-0.19472 -5.93689,0.15426 v 0.0771 l 4.00933,0.23821 11.41115,0.69392 5.01166,0.30455 2.08176,0.0741 -0.8348,-1.23364 -0.75163,-2.39018 -0.0967,-1.69625 -0.0131,-1.07943 m 2.64718,3.90651 0.0257,0.0514 -0.0257,-0.0514 m -38.499803,0.64253 0.0771,0.0771 z"
       id="path3" /></g></svg>
