<?xml version="1.0" encoding="UTF-8" standalone="no"?>
<!-- Created with Inkscape (http://www.inkscape.org/) -->

<svg
   version="1.1"
   id="svg1"
   width="427.94748"
   height="190.72"
   viewBox="0 0 427.94748 190.72"
   xmlns="http://www.w3.org/2000/svg"
   xmlns:svg="http://www.w3.org/2000/svg">
  <defs
     id="defs1" />
  <g
     id="g1"
     transform="translate(-186.02628,-318.56702)">
    <path
       style="fill:#000000"
       d="m 186.03361,508.72702 c 0.0987,-0.308 10.60601,-26.624 23.3496,-58.48 l 23.17016,-57.92 35.63197,-0.16 35.63197,-0.16 2.08,-0.71153 c 2.99733,-1.02533 5.88562,-2.81913 8.46647,-5.25819 2.88665,-2.72805 4.02401,-4.65019 6.18043,-10.44493 1.55371,-4.17516 1.75137,-4.9802 1.75416,-7.14462 0.005,-4.15538 -1.87414,-7.18424 -5.51911,-8.89417 l -1.76195,-0.82656 -34.44761,-0.16 -34.44761,-0.16 7.93523,-19.84 7.93522,-19.84 h 44.91239 44.91238 l 3.95882,0.71978 c 10.87189,1.9767 19.12969,6.52197 24.26881,13.35809 4.80691,6.39422 6.53187,15.93027 4.54428,25.12213 -1.60425,7.41909 -6.73597,19.54489 -11.59788,27.40474 -7.18817,11.62054 -16.563,21.47069 -27.13181,28.50745 l -3.13901,2.08997 1.92987,2.11892 c 2.19821,2.41355 4.71144,7.2198 5.54227,10.59892 2.18462,8.88524 0.83772,20.51669 -3.84898,33.23863 -1.5739,4.2723 -5.78055,12.74773 -8.0413,16.20137 -9.77596,14.93422 -23.76026,24.86116 -40.56507,28.79565 -10.2599,2.40214 -10.31869,2.40435 -63.89547,2.40435 -45.55755,0 -47.97857,-0.0284 -47.80823,-0.56 z m 86.08696,-34.80909 c 3.9349,-1.02491 8.73478,-4.23781 11.27294,-7.54578 1.92491,-2.50873 2.82747,-4.4772 7.02664,-15.32513 l 3.77803,-9.76 0.007,-2.88 c 0.006,-2.50603 -0.10339,-3.08776 -0.8406,-4.48 -1.08332,-2.04591 -2.22872,-3.11622 -4.42689,-4.13669 -1.73224,-0.80417 -1.88116,-0.81711 -9.4417,-0.82018 l -7.68169,-0.003 -9.02548,22.16 c -4.96401,12.188 -9.11865,22.412 -9.23254,22.72 -0.19391,0.52442 0.32963,0.56 8.23994,0.56 6.54582,0 8.86963,-0.11008 10.32473,-0.48909 z m 37.61674,35.07195 c 0,-0.72832 1.13237,-1.40827 2.12422,-1.27553 0.11233,0.015 0.29233,-0.10702 0.4,-0.27122 0.10768,-0.1642 1.63578,-1.03652 3.39578,-1.93848 6.85581,-3.51344 11.63721,-7.10071 17.62651,-13.22438 3.67269,-3.75508 8.55825,-9.87099 9.55265,-11.95833 0.25287,-0.53079 0.82901,-1.50919 1.2803,-2.17421 0.4513,-0.66502 0.82054,-1.28903 0.82054,-1.38669 0,-0.0976 0.49734,-0.99126 1.10519,-1.98579 1.50105,-2.45589 4.74731,-10.17996 6.4085,-15.24823 1.38704,-4.23185 2.65916,-9.4649 3.42275,-14.08 0.60715,-3.66964 0.51221,-12.76223 -0.16707,-16 -0.85503,-4.07545 -1.51787,-6.6036 -1.80383,-6.88 -0.091,-0.088 -0.1998,-0.376 -0.24168,-0.64 -0.0419,-0.264 -0.51122,-1.272 -1.04298,-2.24 -0.53176,-0.968 -1.05429,-2.012 -1.16118,-2.32 -0.10689,-0.308 -0.32155,-0.56 -0.47702,-0.56 -0.15547,0 -0.28268,-0.288 -0.28268,-0.64 0,-0.352 0.20059,-0.64 0.44576,-0.64 0.24517,0 0.52865,-0.216 0.62996,-0.48 0.10131,-0.264 0.39271,-0.48 0.64757,-0.48 0.25486,0 0.51138,-0.12227 0.57004,-0.2717 0.0587,-0.14944 1.40647,-1.34984 2.99511,-2.66757 9.00742,-7.47139 17.40056,-17.3827 22.39781,-26.44918 6.93604,-12.58402 11.2408,-24.22292 11.91127,-32.20483 0.81488,-9.70116 -0.81035,-17.10702 -5.20291,-23.70864 l -1.7398,-2.61476 1.30404,-3.32166 c 0.71723,-1.82691 1.45823,-3.64566 1.64667,-4.04166 l 0.34263,-0.72 h 25.22592 c 25.05817,0 25.22593,0.004 25.22593,0.64349 0,0.35392 -0.30235,1.32592 -0.67189,2.16 -0.36954,0.83408 -0.78227,1.80451 -0.91719,2.15651 -0.13491,0.352 -0.40286,1 -0.59545,1.44 -0.19258,0.44 -2.38398,5.912 -4.86976,12.16 -4.48249,11.2667 -4.76752,11.97973 -5.46852,13.68 -0.19955,0.484 -0.48755,1.204 -0.64,1.6 -0.15246,0.396 -0.41792,1.044 -0.58992,1.44 -0.172,0.396 -3.27053,8.136 -6.88563,17.2 -3.61511,9.064 -6.73365,16.84 -6.93009,17.28 -0.19645,0.44 -0.49871,1.16 -0.6717,1.6 -0.17299,0.44 -0.44172,1.05005 -0.59718,1.35566 -0.15547,0.30561 -0.28267,0.62709 -0.28267,0.71439 0,0.2473 7.16273,-7.18507 7.49835,-7.78063 0.1641,-0.29118 6.04946,-6.57742 13.07859,-13.96942 7.02913,-7.392 14.05638,-14.808 15.61612,-16.48 12.27556,-13.15911 26.7514,-28.2155 28.00758,-29.13083 2.43505,-1.77431 5.95089,-3.82273 6.24706,-3.63969 0.14976,0.0926 0.2723,0.0447 0.2723,-0.10631 0,-0.30564 1.46418,-0.87957 4.14312,-1.62402 2.62466,-0.72936 52.9255,-0.97495 52.76278,-0.25761 -0.0582,0.25677 -5.5779,6.22272 -12.2659,13.25768 -6.688,7.03495 -13.6,14.34746 -15.36,16.25002 -1.76,1.90256 -9.20755,9.8023 -16.5501,17.55498 -7.34256,7.75268 -14.6322,15.46378 -16.19919,17.13578 -1.567,1.672 -7.51145,7.93991 -13.2099,13.9287 -5.69844,5.98878 -11.41245,12.06434 -12.6978,13.50123 l -2.33698,2.61254 2.58809,18.81876 c 1.42345,10.35033 3.52569,25.65877 4.67165,34.01877 1.14596,8.36 2.94096,21.40706 3.9889,28.99346 1.04793,7.5864 1.90533,13.8864 1.90533,14 0,0.29182 -47.52131,0.25856 -47.81333,-0.0335 -0.132,-0.132 -0.372,-0.258 -0.53334,-0.28 -0.16133,-0.022 -0.42628,-0.058 -0.58878,-0.08 -0.81208,-0.10995 -2.26995,-1.81414 -2.71135,-3.16945 -0.27057,-0.8308 -1.65285,-10.07855 -3.07172,-20.55055 -1.41887,-10.472 -2.92824,-21.56 -3.35415,-24.64 -0.42591,-3.08 -1.07605,-7.832 -1.44474,-10.56 -0.36869,-2.728 -0.94421,-6.904 -1.27894,-9.28 -0.6822,-4.84247 -1.87165,-13.56785 -2.11571,-15.52 -0.088,-0.704 -0.22036,-1.496 -0.2941,-1.76 -0.0737,-0.264 -0.16732,-1.0107 -0.20797,-1.65932 -0.0794,-1.26748 -0.58587,-1.36124 -0.58587,-0.10846 0,0.41495 -0.13081,0.80245 -0.29069,0.86111 -0.15987,0.0587 -0.33987,0.39467 -0.4,0.74667 -0.0601,0.352 -0.21367,0.71825 -0.34123,0.81389 -0.12755,0.0956 -0.2786,0.45564 -0.33565,0.8 -0.0571,0.34436 -0.28175,0.95011 -0.49934,1.34611 -0.21758,0.396 -0.31522,0.72 -0.21697,0.72 0.0983,0 -0.0573,0.36 -0.34555,0.8 -0.2883,0.44 -0.4323,0.8 -0.32,0.8 0.1123,0 -0.0317,0.36 -0.32,0.8 -0.2883,0.44 -0.41905,0.8 -0.29057,0.8 0.12848,0 -0.002,0.36 -0.29057,0.8 -0.2883,0.44 -0.4438,0.8 -0.34555,0.8 0.0983,0 -10e-4,0.324 -0.22061,0.72 -0.21958,0.396 -0.36865,0.828 -0.33125,0.96 0.0374,0.132 -0.0845,0.24 -0.27091,0.24 -0.18638,0 -0.25603,0.13405 -0.15478,0.29789 0.10126,0.16384 0.0354,0.38979 -0.14633,0.50211 -0.18174,0.11232 -0.24759,0.33827 -0.14633,0.50211 0.10125,0.16384 0.0231,0.29789 -0.17367,0.29789 -0.19677,0 -0.27492,0.13405 -0.17367,0.29789 0.10126,0.16384 0.0354,0.38979 -0.14633,0.50211 -0.18174,0.11232 -0.24759,0.33827 -0.14633,0.50211 0.10125,0.16384 0.0231,0.29789 -0.17367,0.29789 -0.19677,0 -0.27492,0.13405 -0.17367,0.29789 0.10126,0.16384 0.0354,0.38979 -0.14633,0.50211 -0.18174,0.11232 -0.24759,0.33827 -0.14633,0.50211 0.10125,0.16384 0.0623,0.29789 -0.0867,0.29789 -0.14893,0 -0.29422,0.31104 -0.32285,0.69121 -0.0286,0.38016 -0.23928,0.80996 -0.4681,0.9551 -0.22882,0.14514 -0.30296,0.26609 -0.16477,0.26879 0.13819,0.003 0.0713,0.3289 -0.14866,0.7249 -0.21996,0.396 -0.40906,0.792 -0.42023,0.88 -0.0698,0.54998 -1.28269,3.52 -1.43749,3.52 -0.10378,0 -0.21212,0.31104 -0.24075,0.69121 -0.0286,0.38016 -0.16728,0.77616 -0.3081,0.88 -0.14082,0.10383 -0.30642,0.47679 -0.36801,0.82879 -0.0616,0.352 -0.2056,0.712 -0.32,0.8 -0.11441,0.088 -0.25841,0.448 -0.32,0.8 -0.0616,0.352 -0.2056,0.712 -0.32,0.8 -0.11441,0.088 -0.25243,0.376 -0.30672,0.64 -0.16469,0.80093 -8.77114,21.89755 -9.06637,22.224 -0.15121,0.1672 -0.27493,0.49277 -0.27493,0.72349 0,0.23072 -0.30235,1.10192 -0.67189,1.936 -1.03,2.32479 -0.86181,1.91182 -7.00385,17.19651 -3.18259,7.92 -5.92552,14.65005 -6.0954,14.95566 -0.16987,0.30561 -0.30886,0.77361 -0.30886,1.04 0,0.42842 -2.95578,0.48434 -25.6,0.48434 -15.54051,0 -25.6,-0.11676 -25.6,-0.29714 z m 155.2,-0.0654 c 0,-0.31411 -3.89258,-29.85941 -5.28377,-40.10466 -0.26193,-1.92893 -0.47623,-3.83693 -0.47623,-4.24 v -0.7328 h 49.12 c 27.016,0 49.12,0.0714 49.12,0.15872 0,0.12907 -2.83809,7.4648 -3.8384,9.92128 -0.14334,0.352 -0.72242,1.864 -1.28684,3.36 -0.56443,1.496 -1.21107,3.152 -1.43698,3.68 -0.22592,0.528 -0.94516,2.4 -1.59833,4.16 -1.51768,4.08949 -3.26892,8.62308 -4.29546,11.12 -0.1628,0.396 -1.35695,3.456 -2.65366,6.8 l -2.35766,6.08 -37.50634,0.0813 c -27.92901,0.0606 -37.50633,-0.0119 -37.50633,-0.28379 z m -9.93401,-75.71746 c -0.008,-0.132 -0.56753,-4.344 -1.24405,-9.36 -0.89133,-6.60869 -1.14093,-9.29623 -0.90645,-9.76 0.30081,-0.59495 2.01286,-2.45889 10.08181,-10.97622 1.71749,-1.81292 3.1947,-3.49289 3.2827,-3.73326 0.088,-0.24037 1.71788,-2.03307 3.62194,-3.98378 l 3.46195,-3.54674 h 47.65805 c 38.12091,0 47.65806,0.0807 47.65806,0.4033 0,0.22181 -2.51235,6.912 -5.583,14.86707 -3.07066,7.95508 -5.62666,14.7216 -5.68,15.03671 -0.0533,0.31511 -0.21221,0.65788 -0.35303,0.76171 -0.14082,0.10384 -0.27946,0.49984 -0.3081,0.88 -0.0286,0.38017 -0.18083,0.69121 -0.3382,0.69121 -0.15738,0 -0.20326,0.216 -0.10195,0.48 0.10131,0.264 0.0362,0.48 -0.14465,0.48 -0.18086,0 -0.24745,0.1317 -0.14796,0.29267 0.0995,0.16097 0.0401,0.34097 -0.13186,0.4 -0.17201,0.059 -0.35707,0.39533 -0.41125,0.74733 -0.0542,0.352 -0.18755,0.784 -0.29637,0.96 -0.10881,0.176 -0.65511,1.508 -1.214,2.96 l -1.01615,2.64 h -48.93674 c -26.91521,0 -48.94305,-0.108 -48.95075,-0.24 z m 46.09401,-71.78269 c 0,-0.36412 2.57951,-3.34855 7.04,-8.14512 1.496,-1.60871 4.52,-4.91945 6.72,-7.35719 2.2,-2.43774 5.152,-5.67544 6.56,-7.19489 1.408,-1.51945 4.432,-4.83087 6.72,-7.35873 2.288,-2.52785 5.24147,-5.75829 6.56327,-7.17874 1.3218,-1.42045 2.99596,-3.26664 3.72035,-4.10264 l 1.31707,-1.52 h 37.19389 c 29.62365,0 37.16265,0.0814 37.04038,0.4 -0.0844,0.22 -0.75862,1.984 -1.49821,3.92 -0.73958,1.936 -1.46109,3.808 -1.60335,4.16 -0.5978,1.47917 -1.99596,5.07598 -3.54515,9.12 -1.68538,4.39956 -4.32204,11.16178 -4.8037,12.32 -0.14638,0.352 -0.76346,1.936 -1.37127,3.52 -0.60782,1.584 -1.7123,4.428 -2.4544,6.32 l -1.34928,3.44 h -48.1248 c -33.99414,0 -48.1248,-0.10062 -48.1248,-0.34269 z"
       id="path1" />
  </g>
</svg>
